{
    "asset" : {
        "generator" : "Khronos glTF Blender I/O v3.4.50",
        "version" : "2.0"
    },
    "scene" : 0,
    "scenes" : [
        {
            "name" : "Scene",
            "nodes" : [
                0,
                1,
                2,
                3,
                4
            ]
        }
    ],
    "nodes" : [
        {
            "mesh" : 0,
            "name" : "Cube",
            "rotation" : [
                0,
                -1,
                0,
                4.371138828673793e-08
            ],
            "scale" : [
                13.886995315551758,
                0.13826946914196014,
                7.556518077850342
            ],
            "translation" : [
                -2.6511290073394775,
                170.14315795898438,
                18.41748046875
            ]
        },
        {
            "mesh" : 1,
            "name" : "Cylinder.002",
            "rotation" : [
                0,
                0,
                0.70710688829422,
                0.7071066498756409
            ],
            "scale" : [
                0.05063727870583534,
                0.9507665038108826,
                0.05063728243112564
            ],
            "translation" : [
                -4.474193572998047,
                171.6906280517578,
                -1.9636459350585938
            ]
        },
        {
            "mesh" : 2,
            "name" : "Cylinder.001",
            "rotation" : [
                0.5000000596046448,
                0.5000001192092896,
                0.4999999403953552,
                0.4999998211860657
            ],
            "scale" : [
                0.05063728988170624,
                0.9507666826248169,
                0.05063728988170624
            ],
            "translation" : [
                -16.442302703857422,
                171.6906280517578,
                8.186042785644531
            ]
        },
        {
            "mesh" : 3,
            "name" : "Cylinder.003",
            "rotation" : [
                0,
                0,
                0.70710688829422,
                0.7071066498756409
            ],
            "scale" : [
                0.05063727870583534,
                0.9507665038108826,
                0.05063728243112564
            ],
            "translation" : [
                17.632568359375,
                171.6906280517578,
                -1.9636478424072266
            ]
        },
        {
            "mesh" : 4,
            "name" : "Cube.001",
            "rotation" : [
                0,
                -1,
                0,
                4.371138828673793e-08
            ],
            "scale" : [
                6.06546688079834,
                2.9598286151885986,
                2.509892225265503
            ],
            "translation" : [
                11.804868698120117,
                173.17881774902344,
                23.367469787597656
            ]
        }
    ],
    "materials" : [
        {
            "doubleSided" : true,
            "name" : "Material.001",
            "pbrMetallicRoughness" : {
                "baseColorFactor" : [
                    1,
                    0.38481131196022034,
                    0.21886521577835083,
                    1
                ],
                "metallicFactor" : 0,
                "roughnessFactor" : 0.5
            }
        }
    ],
    "meshes" : [
        {
            "name" : "Cube.001",
            "primitives" : [
                {
                    "attributes" : {
                        "POSITION" : 0,
                        "TEXCOORD_0" : 1,
                        "NORMAL" : 2
                    },
                    "indices" : 3,
                    "material" : 0
                }
            ]
        },
        {
            "name" : "Cylinder.002",
            "primitives" : [
                {
                    "attributes" : {
                        "POSITION" : 4,
                        "TEXCOORD_0" : 5,
                        "NORMAL" : 6
                    },
                    "indices" : 7
                }
            ]
        },
        {
            "name" : "Cylinder.008",
            "primitives" : [
                {
                    "attributes" : {
                        "POSITION" : 8,
                        "TEXCOORD_0" : 9,
                        "NORMAL" : 10
                    },
                    "indices" : 7
                }
            ]
        },
        {
            "name" : "Cylinder.009",
            "primitives" : [
                {
                    "attributes" : {
                        "POSITION" : 11,
                        "TEXCOORD_0" : 12,
                        "NORMAL" : 13
                    },
                    "indices" : 7
                }
            ]
        },
        {
            "name" : "Cube.003",
            "primitives" : [
                {
                    "attributes" : {
                        "POSITION" : 14,
                        "TEXCOORD_0" : 15,
                        "NORMAL" : 16
                    },
                    "indices" : 17,
                    "material" : 0
                }
            ]
        }
    ],
    "accessors" : [
        {
            "bufferView" : 0,
            "componentType" : 5126,
            "count" : 95,
            "max" : [
                1,
                1,
                2.742187023162842
            ],
            "min" : [
                -2.076611042022705,
                -1037.26806640625,
                -1
            ],
            "type" : "VEC3"
        },
        {
            "bufferView" : 1,
            "componentType" : 5126,
            "count" : 95,
            "type" : "VEC2"
        },
        {
            "bufferView" : 2,
            "componentType" : 5126,
            "count" : 95,
            "type" : "VEC3"
        },
        {
            "bufferView" : 3,
            "componentType" : 5123,
            "count" : 156,
            "type" : "SCALAR"
        },
        {
            "bufferView" : 4,
            "componentType" : 5126,
            "count" : 11659,
            "max" : [
                1.000064730644226,
                12.620567321777344,
                1.0000460147857666
            ],
            "min" : [
                -28.041711807250977,
                -10.689197540283203,
                -1.000015377998352
            ],
            "type" : "VEC3"
        },
        {
            "bufferView" : 5,
            "componentType" : 5126,
            "count" : 11659,
            "type" : "VEC2"
        },
        {
            "bufferView" : 6,
            "componentType" : 5126,
            "count" : 11659,
            "type" : "VEC3"
        },
        {
            "bufferView" : 7,
            "componentType" : 5123,
            "count" : 13464,
            "type" : "SCALAR"
        },
        {
            "bufferView" : 8,
            "componentType" : 5126,
            "count" : 11659,
            "max" : [
                1.000064730644226,
                12.620567321777344,
                1.0000460147857666
            ],
            "min" : [
                -28.041711807250977,
                -10.689197540283203,
                -1.000015377998352
            ],
            "type" : "VEC3"
        },
        {
            "bufferView" : 9,
            "componentType" : 5126,
            "count" : 11659,
            "type" : "VEC2"
        },
        {
            "bufferView" : 10,
            "componentType" : 5126,
            "count" : 11659,
            "type" : "VEC3"
        },
        {
            "bufferView" : 11,
            "componentType" : 5126,
            "count" : 11659,
            "max" : [
                1.000064730644226,
                12.620567321777344,
                1.0000460147857666
            ],
            "min" : [
                -28.041711807250977,
                -10.689197540283203,
                -1.000015377998352
            ],
            "type" : "VEC3"
        },
        {
            "bufferView" : 12,
            "componentType" : 5126,
            "count" : 11659,
            "type" : "VEC2"
        },
        {
            "bufferView" : 13,
            "componentType" : 5126,
            "count" : 11659,
            "type" : "VEC3"
        },
        {
            "bufferView" : 14,
            "componentType" : 5126,
            "count" : 24,
            "max" : [
                1,
                1,
                1
            ],
            "min" : [
                -1,
                -1,
                -1
            ],
            "type" : "VEC3"
        },
        {
            "bufferView" : 15,
            "componentType" : 5126,
            "count" : 24,
            "type" : "VEC2"
        },
        {
            "bufferView" : 16,
            "componentType" : 5126,
            "count" : 24,
            "type" : "VEC3"
        },
        {
            "bufferView" : 17,
            "componentType" : 5123,
            "count" : 36,
            "type" : "SCALAR"
        }
    ],
    "bufferViews" : [
        {
            "buffer" : 0,
            "byteLength" : 1140,
            "byteOffset" : 0,
            "target" : 34962
        },
        {
            "buffer" : 0,
            "byteLength" : 760,
            "byteOffset" : 1140,
            "target" : 34962
        },
        {
            "buffer" : 0,
            "byteLength" : 1140,
            "byteOffset" : 1900,
            "target" : 34962
        },
        {
            "buffer" : 0,
            "byteLength" : 312,
            "byteOffset" : 3040,
            "target" : 34963
        },
        {
            "buffer" : 0,
            "byteLength" : 139908,
            "byteOffset" : 3352,
            "target" : 34962
        },
        {
            "buffer" : 0,
            "byteLength" : 93272,
            "byteOffset" : 143260,
            "target" : 34962
        },
        {
            "buffer" : 0,
            "byteLength" : 139908,
            "byteOffset" : 236532,
            "target" : 34962
        },
        {
            "buffer" : 0,
            "byteLength" : 26928,
            "byteOffset" : 376440,
            "target" : 34963
        },
        {
            "buffer" : 0,
            "byteLength" : 139908,
            "byteOffset" : 403368,
            "target" : 34962
        },
        {
            "buffer" : 0,
            "byteLength" : 93272,
            "byteOffset" : 543276,
            "target" : 34962
        },
        {
            "buffer" : 0,
            "byteLength" : 139908,
            "byteOffset" : 636548,
            "target" : 34962
        },
        {
            "buffer" : 0,
            "byteLength" : 139908,
            "byteOffset" : 776456,
            "target" : 34962
        },
        {
            "buffer" : 0,
            "byteLength" : 93272,
            "byteOffset" : 916364,
            "target" : 34962
        },
        {
            "buffer" : 0,
            "byteLength" : 139908,
            "byteOffset" : 1009636,
            "target" : 34962
        },
        {
            "buffer" : 0,
            "byteLength" : 288,
            "byteOffset" : 1149544,
            "target" : 34962
        },
        {
            "buffer" : 0,
            "byteLength" : 192,
            "byteOffset" : 1149832,
            "target" : 34962
        },
        {
            "buffer" : 0,
            "byteLength" : 288,
            "byteOffset" : 1150024,
            "target" : 34962
        },
        {
            "buffer" : 0,
            "byteLength" : 72,
            "byteOffset" : 1150312,
            "target" : 34963
        }
    ],
    "buffers" : [
        {
            "byteLength" : 1150384,
            "uri" : "data:application/octet-stream;base64,"
        }
    ]
}
