{
    "asset" : {
        "generator" : "Khronos glTF Blender I/O v3.4.50",
        "version" : "2.0"
    },
    "scene" : 0,
    "scenes" : [
        {
            "name" : "Scene",
            "nodes" : [
                4
            ]
        }
    ],
    "nodes" : [
        {
            "mesh" : 0,
            "name" : "Plane.005_chair_0"
        },
        {
            "children" : [
                0
            ],
            "name" : "Plane.005",
            "rotation" : [
                0,
                -0.7071068286895752,
                -0.7071068286895752,
                1.3767881057447084e-07
            ],
            "scale" : [
                87.93462371826172,
                87.93460845947266,
                87.93460845947266
            ]
        },
        {
            "children" : [
                1
            ],
            "name" : "RootNode"
        },
        {
            "children" : [
                2
            ],
            "name" : "c3145045d2e348fd8a6baa755a9b3b8f.fbx",
            "rotation" : [
                0.70710688829422,
                0,
                0,
                0.7071066498756409
            ]
        },
        {
            "children" : [
                3
            ],
            "name" : "Sketchfab_model",
            "rotation" : [
                -0.70710688829422,
                0,
                0,
                0.7071066498756409
            ],
            "scale" : [
                0.14386560022830963,
                0.14386561512947083,
                0.14386561512947083
            ]
        }
    ],
    "materials" : [
        {
            "doubleSided" : true,
            "name" : "chair",
            "pbrMetallicRoughness" : {
                "baseColorFactor" : [
                    0.17886100709438324,
                    0.10043500363826752,
                    0.039712898433208466,
                    1
                ],
                "metallicFactor" : 0,
                "roughnessFactor" : 0.823941707611084
            }
        }
    ],
    "meshes" : [
        {
            "name" : "Plane.005_chair_0",
            "primitives" : [
                {
                    "attributes" : {
                        "POSITION" : 0,
                        "NORMAL" : 1
                    },
                    "indices" : 2,
                    "material" : 0
                }
            ]
        }
    ],
    "accessors" : [
        {
            "bufferView" : 0,
            "componentType" : 5126,
            "count" : 473,
            "max" : [
                1,
                1,
                2.8685038089752197
            ],
            "min" : [
                -1,
                -1.397405743598938,
                -1.9313920736312866
            ],
            "type" : "VEC3"
        },
        {
            "bufferView" : 1,
            "componentType" : 5126,
            "count" : 473,
            "type" : "VEC3"
        },
        {
            "bufferView" : 2,
            "componentType" : 5123,
            "count" : 750,
            "type" : "SCALAR"
        }
    ],
    "bufferViews" : [
        {
            "buffer" : 0,
            "byteLength" : 5676,
            "byteOffset" : 0,
            "target" : 34962
        },
        {
            "buffer" : 0,
            "byteLength" : 5676,
            "byteOffset" : 5676,
            "target" : 34962
        },
        {
            "buffer" : 0,
            "byteLength" : 1500,
            "byteOffset" : 11352,
            "target" : 34963
        }
    ],
    "buffers" : [
        {
            "byteLength" : 12852,
            "uri" : "data:application/octet-stream;base64,"
        }
    ]
}
